<svg width="32" height="22" viewBox="0 0 32 22" fill="none" xmlns="http://www.w3.org/2000/svg">
<path d="M0.719421 14.9744L0.718445 14.9666L0.688171 13.9939C0.688325 6.79505 6.39148 0.928865 13.5261 0.665771V3.62183C11.1128 3.73565 8.84752 4.67109 7.05829 6.2937L6.68329 6.65112C6.30608 7.02839 5.96171 7.43053 5.65106 7.85229L4.92938 8.83179L6.13153 8.64233C6.45955 8.59071 6.79588 8.56323 7.13837 8.56323C10.6833 8.56335 13.5571 11.4373 13.5573 14.9822C13.5573 18.5272 10.6834 21.402 7.13837 21.4021C3.5932 21.4021 0.719421 18.5273 0.719421 14.9822V14.9744ZM18.5114 14.9744L18.5104 14.9666L18.4802 13.9939C18.4803 6.79503 24.1834 0.928839 31.3181 0.665771V3.62183C28.9049 3.73564 26.6395 4.67109 24.8503 6.2937L24.4753 6.65112C24.098 7.02841 23.7537 7.43053 23.4431 7.85229L22.7214 8.83179L23.9235 8.64233C24.2515 8.59072 24.5878 8.56323 24.9304 8.56323C28.4752 8.56337 31.3491 11.4374 31.3493 14.9822C31.3493 18.5272 28.4753 21.402 24.9304 21.4021C21.3852 21.4021 18.5114 18.5273 18.5114 14.9822V14.9744Z" fill="black" stroke="black"/>
</svg>
